<svg width="11" height="8" viewBox="0 0 11 8" fill="none" xmlns="http://www.w3.org/2000/svg">
<path fill-rule="evenodd" clip-rule="evenodd" d="M0.100368 1.74987C0.100368 1.51987 0.190367 1.28987 0.360367 1.10987C0.529035 0.941937 0.757356 0.847656 0.995367 0.847656C1.23338 0.847656 1.4617 0.941937 1.63037 1.10987L5.50037 4.97987L9.36037 1.10987C9.52904 0.941937 9.75736 0.847656 9.99537 0.847656C10.2334 0.847656 10.4617 0.941937 10.6304 1.10987C10.7983 1.27854 10.8926 1.50686 10.8926 1.74487C10.8926 1.98288 10.7983 2.2112 10.6304 2.37987L6.13037 6.87987C5.9617 7.0478 5.73338 7.14208 5.49537 7.14208C5.25736 7.14208 5.02903 7.0478 4.86037 6.87987L0.360367 2.37987C0.190367 2.20987 0.100368 1.97987 0.100368 1.74987Z" fill="#1D1C21"/>
</svg>
